<?xml version="1.0" encoding="UTF-8" standalone="no"?>
<!DOCTYPE svg PUBLIC "-//W3C//DTD SVG 1.1//EN"
 "http://www.w3.org/Graphics/SVG/1.1/DTD/svg11.dtd">
<!-- Generated by graphviz version 2.40.1 (20161225.0304)
 -->
<!-- Title: dependencies Pages: 1 -->
<svg width="714pt" height="284pt"
 viewBox="0.00 0.00 714.00 284.00" xmlns="http://www.w3.org/2000/svg" xmlns:xlink="http://www.w3.org/1999/xlink">
<g id="graph0" class="graph" transform="scale(1 1) rotate(0) translate(4 280)">
<title>dependencies</title>
<polygon fill="#ffffff" stroke="transparent" points="-4,4 -4,-280 710,-280 710,4 -4,4"/>
<text text-anchor="start" x="332.0091" y="-42.4" font-family="sans-serif" font-weight="bold" font-size="14.00" fill="#000000">Legend</text>
<polygon fill="#ffffb3" stroke="transparent" points="119,-10 119,-30 139,-30 139,-10 119,-10"/>
<text text-anchor="start" x="142.629" y="-15.4" font-family="sans-serif" font-size="14.00" fill="#000000"> &#160;Declarations</text>
<polygon fill="#8dd3c7" stroke="transparent" points="232,-10 232,-30 252,-30 252,-10 232,-10"/>
<text text-anchor="start" x="255.7251" y="-15.4" font-family="sans-serif" font-size="14.00" fill="#000000"> &#160;Module</text>
<polygon fill="#80b1d3" stroke="transparent" points="318,-10 318,-30 338,-30 338,-10 318,-10"/>
<text text-anchor="start" x="341.7812" y="-15.4" font-family="sans-serif" font-size="14.00" fill="#000000"> &#160;Bootstrap</text>
<polygon fill="#fdb462" stroke="transparent" points="415,-10 415,-30 435,-30 435,-10 415,-10"/>
<text text-anchor="start" x="438.6732" y="-15.4" font-family="sans-serif" font-size="14.00" fill="#000000"> &#160;Providers</text>
<polygon fill="#fb8072" stroke="transparent" points="511,-10 511,-30 531,-30 531,-10 511,-10"/>
<text text-anchor="start" x="534.7258" y="-15.4" font-family="sans-serif" font-size="14.00" fill="#000000"> &#160;Exports</text>
<g id="clust1" class="cluster">
<title>cluster_AppModule</title>
<polygon fill="none" stroke="#000000" stroke-dasharray="1,5" points="8,-70 8,-268 148,-268 148,-70 8,-70"/>
</g>
<g id="clust2" class="cluster">
<title>cluster_AppModule_declarations</title>
<polygon fill="none" stroke="#000000" points="17,-78 17,-130 139,-130 139,-78 17,-78"/>
</g>
<g id="clust6" class="cluster">
<title>cluster_AppModule_bootstrap</title>
<polygon fill="none" stroke="#000000" points="16,-208 16,-260 140,-260 140,-208 16,-208"/>
</g>
<g id="clust8" class="cluster">
<title>cluster_MdPriceFormatModule</title>
<polygon fill="none" stroke="#000000" stroke-dasharray="1,5" points="156,-70 156,-268 504,-268 504,-70 156,-70"/>
</g>
<g id="clust9" class="cluster">
<title>cluster_MdPriceFormatModule_declarations</title>
<polygon fill="none" stroke="#000000" points="310,-78 310,-130 496,-130 496,-78 310,-78"/>
</g>
<g id="clust11" class="cluster">
<title>cluster_MdPriceFormatModule_imports</title>
<polygon fill="none" stroke="#000000" points="164,-78 164,-130 302,-130 302,-78 164,-78"/>
</g>
<g id="clust12" class="cluster">
<title>cluster_MdPriceFormatModule_exports</title>
<polygon fill="none" stroke="#000000" points="235,-208 235,-260 425,-260 425,-208 235,-208"/>
</g>
<g id="clust15" class="cluster">
<title>cluster_PriceFormatModule</title>
<polygon fill="none" stroke="#000000" stroke-dasharray="1,5" points="512,-70 512,-268 698,-268 698,-70 512,-70"/>
</g>
<g id="clust16" class="cluster">
<title>cluster_PriceFormatModule_declarations</title>
<polygon fill="none" stroke="#000000" points="522,-78 522,-130 688,-130 688,-78 522,-78"/>
</g>
<g id="clust19" class="cluster">
<title>cluster_PriceFormatModule_exports</title>
<polygon fill="none" stroke="#000000" points="520,-208 520,-260 690,-260 690,-208 520,-208"/>
</g>
<!-- AppComponent -->
<g id="node1" class="node">
<title>AppComponent</title>
<polygon fill="#ffffb3" stroke="#000000" points="130.9399,-122 25.0601,-122 25.0601,-86 130.9399,-86 130.9399,-122"/>
<text text-anchor="middle" x="78" y="-99.8" font-family="Times,serif" font-size="14.00" fill="#000000">AppComponent</text>
</g>
<!-- AppModule -->
<g id="node2" class="node">
<title>AppModule</title>
<polygon fill="#8dd3c7" stroke="#000000" points="119.6571,-187 116.6571,-191 95.6571,-191 92.6571,-187 36.3429,-187 36.3429,-151 119.6571,-151 119.6571,-187"/>
<text text-anchor="middle" x="78" y="-164.8" font-family="Times,serif" font-size="14.00" fill="#000000">AppModule</text>
</g>
<!-- AppComponent&#45;&gt;AppModule -->
<g id="edge1" class="edge">
<title>AppComponent&#45;&gt;AppModule</title>
<path fill="none" stroke="#000000" d="M78,-122.1061C78,-122.1061 78,-140.991 78,-140.991"/>
<polygon fill="#000000" stroke="#000000" points="74.5001,-140.9909 78,-150.991 81.5001,-140.991 74.5001,-140.9909"/>
</g>
<!-- AppComponent  -->
<g id="node3" class="node">
<title>AppComponent </title>
<polygon fill="#80b1d3" stroke="#000000" points="132.439,-252 23.561,-252 23.561,-216 132.439,-216 132.439,-252"/>
<text text-anchor="middle" x="78" y="-229.8" font-family="Times,serif" font-size="14.00" fill="#000000">AppComponent </text>
</g>
<!-- AppModule&#45;&gt;AppComponent  -->
<g id="edge2" class="edge">
<title>AppModule&#45;&gt;AppComponent </title>
<path fill="none" stroke="#000000" stroke-dasharray="1,5" d="M78,-187.1061C78,-187.1061 78,-205.991 78,-205.991"/>
<polygon fill="#000000" stroke="#000000" points="74.5001,-205.9909 78,-215.991 81.5001,-205.991 74.5001,-205.9909"/>
</g>
<!-- MdPriceFormatComponent -->
<g id="node4" class="node">
<title>MdPriceFormatComponent</title>
<polygon fill="#ffffb3" stroke="#000000" points="487.979,-122 318.021,-122 318.021,-86 487.979,-86 487.979,-122"/>
<text text-anchor="middle" x="403" y="-99.8" font-family="Times,serif" font-size="14.00" fill="#000000">MdPriceFormatComponent</text>
</g>
<!-- MdPriceFormatModule -->
<g id="node5" class="node">
<title>MdPriceFormatModule</title>
<polygon fill="#8dd3c7" stroke="#000000" points="404.1965,-187 401.1965,-191 380.1965,-191 377.1965,-187 255.8035,-187 255.8035,-151 404.1965,-151 404.1965,-187"/>
<text text-anchor="middle" x="330" y="-164.8" font-family="Times,serif" font-size="14.00" fill="#000000">MdPriceFormatModule</text>
</g>
<!-- MdPriceFormatComponent&#45;&gt;MdPriceFormatModule -->
<g id="edge3" class="edge">
<title>MdPriceFormatComponent&#45;&gt;MdPriceFormatModule</title>
<path fill="none" stroke="#000000" d="M375.4023,-122.1061C375.4023,-122.1061 375.4023,-140.991 375.4023,-140.991"/>
<polygon fill="#000000" stroke="#000000" points="371.9024,-140.9909 375.4023,-150.991 378.9024,-140.991 371.9024,-140.9909"/>
</g>
<!-- MdPriceFormatComponent&#45;&gt;MdPriceFormatModule -->
<g id="edge6" class="edge">
<title>MdPriceFormatComponent&#45;&gt;MdPriceFormatModule</title>
<path fill="none" stroke="#000000" d="M346.7064,-122.1061C346.7064,-122.1061 346.7064,-140.991 346.7064,-140.991"/>
<polygon fill="#000000" stroke="#000000" points="343.2065,-140.9909 346.7064,-150.991 350.2065,-140.991 343.2065,-140.9909"/>
</g>
<!-- MdPriceFormatComponent  -->
<g id="node7" class="node">
<title>MdPriceFormatComponent </title>
<polygon fill="#fb8072" stroke="#000000" points="416.9797,-252 243.0203,-252 243.0203,-216 416.9797,-216 416.9797,-252"/>
<text text-anchor="middle" x="330" y="-229.8" font-family="Times,serif" font-size="14.00" fill="#000000">MdPriceFormatComponent </text>
</g>
<!-- MdPriceFormatModule&#45;&gt;MdPriceFormatComponent  -->
<g id="edge5" class="edge">
<title>MdPriceFormatModule&#45;&gt;MdPriceFormatComponent </title>
<path fill="none" stroke="#000000" stroke-dasharray="5,2" d="M305.3006,-187.1061C305.3006,-187.1061 305.3006,-205.991 305.3006,-205.991"/>
<polygon fill="#000000" stroke="#000000" points="301.8007,-205.9909 305.3006,-215.991 308.8007,-205.991 301.8007,-205.9909"/>
</g>
<!-- MdPriceFormatModule&#45;&gt;MdPriceFormatComponent  -->
<g id="edge8" class="edge">
<title>MdPriceFormatModule&#45;&gt;MdPriceFormatComponent </title>
<path fill="none" stroke="#000000" stroke-dasharray="5,2" d="M354.6994,-187.1061C354.6994,-187.1061 354.6994,-205.991 354.6994,-205.991"/>
<polygon fill="#000000" stroke="#000000" points="351.1995,-205.9909 354.6994,-215.991 358.1995,-205.991 351.1995,-205.9909"/>
</g>
<!-- ...CommonImports -->
<g id="node6" class="node">
<title>...CommonImports</title>
<polygon fill="#8dd3c7" stroke="#000000" points="294.1649,-122 291.1649,-126 270.1649,-126 267.1649,-122 171.8351,-122 171.8351,-86 294.1649,-86 294.1649,-122"/>
<text text-anchor="middle" x="233" y="-99.8" font-family="Times,serif" font-size="14.00" fill="#000000">...CommonImports</text>
</g>
<!-- ...CommonImports&#45;&gt;MdPriceFormatModule -->
<g id="edge4" class="edge">
<title>...CommonImports&#45;&gt;MdPriceFormatModule</title>
<path fill="none" stroke="#000000" d="M268.6287,-122.1061C268.6287,-122.1061 268.6287,-140.991 268.6287,-140.991"/>
<polygon fill="#000000" stroke="#000000" points="265.1288,-140.9909 268.6287,-150.991 272.1288,-140.991 265.1288,-140.9909"/>
</g>
<!-- ...CommonImports&#45;&gt;MdPriceFormatModule -->
<g id="edge7" class="edge">
<title>...CommonImports&#45;&gt;MdPriceFormatModule</title>
<path fill="none" stroke="#000000" d="M281.3555,-122.1061C281.3555,-122.1061 281.3555,-140.991 281.3555,-140.991"/>
<polygon fill="#000000" stroke="#000000" points="277.8556,-140.9909 281.3555,-150.991 284.8556,-140.991 277.8556,-140.9909"/>
</g>
<!-- PriceFormatComponent -->
<g id="node8" class="node">
<title>PriceFormatComponent</title>
<polygon fill="#ffffb3" stroke="#000000" points="680.0351,-122 529.9649,-122 529.9649,-86 680.0351,-86 680.0351,-122"/>
<text text-anchor="middle" x="605" y="-99.8" font-family="Times,serif" font-size="14.00" fill="#000000">PriceFormatComponent</text>
</g>
<!-- PriceFormatModule -->
<g id="node9" class="node">
<title>PriceFormatModule</title>
<polygon fill="#8dd3c7" stroke="#000000" points="669.252,-187 666.252,-191 645.252,-191 642.252,-187 540.748,-187 540.748,-151 669.252,-151 669.252,-187"/>
<text text-anchor="middle" x="605" y="-164.8" font-family="Times,serif" font-size="14.00" fill="#000000">PriceFormatModule</text>
</g>
<!-- PriceFormatComponent&#45;&gt;PriceFormatModule -->
<g id="edge9" class="edge">
<title>PriceFormatComponent&#45;&gt;PriceFormatModule</title>
<path fill="none" stroke="#000000" d="M626.4586,-122.1061C626.4586,-122.1061 626.4586,-140.991 626.4586,-140.991"/>
<polygon fill="#000000" stroke="#000000" points="622.9587,-140.9909 626.4586,-150.991 629.9587,-140.991 622.9587,-140.9909"/>
</g>
<!-- PriceFormatComponent&#45;&gt;PriceFormatModule -->
<g id="edge11" class="edge">
<title>PriceFormatComponent&#45;&gt;PriceFormatModule</title>
<path fill="none" stroke="#000000" d="M583.5414,-122.1061C583.5414,-122.1061 583.5414,-140.991 583.5414,-140.991"/>
<polygon fill="#000000" stroke="#000000" points="580.0415,-140.9909 583.5414,-150.991 587.0415,-140.991 580.0415,-140.9909"/>
</g>
<!-- PriceFormatComponent  -->
<g id="node10" class="node">
<title>PriceFormatComponent </title>
<polygon fill="#fb8072" stroke="#000000" points="682.0344,-252 527.9656,-252 527.9656,-216 682.0344,-216 682.0344,-252"/>
<text text-anchor="middle" x="605" y="-229.8" font-family="Times,serif" font-size="14.00" fill="#000000">PriceFormatComponent </text>
</g>
<!-- PriceFormatModule&#45;&gt;PriceFormatComponent  -->
<g id="edge10" class="edge">
<title>PriceFormatModule&#45;&gt;PriceFormatComponent </title>
<path fill="none" stroke="#000000" stroke-dasharray="5,2" d="M583.5414,-187.1061C583.5414,-187.1061 583.5414,-205.991 583.5414,-205.991"/>
<polygon fill="#000000" stroke="#000000" points="580.0415,-205.9909 583.5414,-215.991 587.0415,-205.991 580.0415,-205.9909"/>
</g>
<!-- PriceFormatModule&#45;&gt;PriceFormatComponent  -->
<g id="edge12" class="edge">
<title>PriceFormatModule&#45;&gt;PriceFormatComponent </title>
<path fill="none" stroke="#000000" stroke-dasharray="5,2" d="M626.4586,-187.1061C626.4586,-187.1061 626.4586,-205.991 626.4586,-205.991"/>
<polygon fill="#000000" stroke="#000000" points="622.9587,-205.9909 626.4586,-215.991 629.9587,-205.991 622.9587,-205.9909"/>
</g>
</g>
</svg>
