<?xml version="1.0" encoding="UTF-8" standalone="no"?>
<!DOCTYPE svg PUBLIC "-//W3C//DTD SVG 1.1//EN"
 "http://www.w3.org/Graphics/SVG/1.1/DTD/svg11.dtd">
<!-- Generated by graphviz version 2.40.1 (20161225.0304)
 -->
<!-- Title: dependencies Pages: 1 -->
<svg width="1027pt" height="349pt"
 viewBox="0.00 0.00 1027.00 349.00" xmlns="http://www.w3.org/2000/svg" xmlns:xlink="http://www.w3.org/1999/xlink">
<g id="graph0" class="graph" transform="scale(1 1) rotate(0) translate(4 345)">
<title>dependencies</title>
<polygon fill="#ffffff" stroke="transparent" points="-4,4 -4,-345 1023,-345 1023,4 -4,4"/>
<text text-anchor="start" x="488.5091" y="-42.4" font-family="sans-serif" font-weight="bold" font-size="14.00" fill="#000000">Legend</text>
<polygon fill="#ffffb3" stroke="transparent" points="275.5,-10 275.5,-30 295.5,-30 295.5,-10 275.5,-10"/>
<text text-anchor="start" x="299.129" y="-15.4" font-family="sans-serif" font-size="14.00" fill="#000000"> &#160;Declarations</text>
<polygon fill="#8dd3c7" stroke="transparent" points="388.5,-10 388.5,-30 408.5,-30 408.5,-10 388.5,-10"/>
<text text-anchor="start" x="412.2251" y="-15.4" font-family="sans-serif" font-size="14.00" fill="#000000"> &#160;Module</text>
<polygon fill="#80b1d3" stroke="transparent" points="474.5,-10 474.5,-30 494.5,-30 494.5,-10 474.5,-10"/>
<text text-anchor="start" x="498.2812" y="-15.4" font-family="sans-serif" font-size="14.00" fill="#000000"> &#160;Bootstrap</text>
<polygon fill="#fdb462" stroke="transparent" points="571.5,-10 571.5,-30 591.5,-30 591.5,-10 571.5,-10"/>
<text text-anchor="start" x="595.1732" y="-15.4" font-family="sans-serif" font-size="14.00" fill="#000000"> &#160;Providers</text>
<polygon fill="#fb8072" stroke="transparent" points="667.5,-10 667.5,-30 687.5,-30 687.5,-10 667.5,-10"/>
<text text-anchor="start" x="691.2258" y="-15.4" font-family="sans-serif" font-size="14.00" fill="#000000"> &#160;Exports</text>
<g id="clust1" class="cluster">
<title>cluster_PriceFormatModule</title>
<polygon fill="none" stroke="#000000" stroke-dasharray="1,5" points="8,-70 8,-333 1011,-333 1011,-70 8,-70"/>
</g>
<g id="clust2" class="cluster">
<title>cluster_PriceFormatModule_declarations</title>
<polygon fill="none" stroke="#000000" points="530,-143 530,-195 696,-195 696,-143 530,-143"/>
</g>
<g id="clust3" class="cluster">
<title>cluster_PriceFormatModule_PriceFormatComponent_providers</title>
<polygon fill="none" stroke="#000000" points="16,-78 16,-130 1003,-130 1003,-78 16,-78"/>
</g>
<g id="clust4" class="cluster">
<title>cluster_PriceFormatModule_imports</title>
<polygon fill="none" stroke="#000000" points="147,-143 147,-195 522,-195 522,-143 147,-143"/>
</g>
<g id="clust5" class="cluster">
<title>cluster_PriceFormatModule_exports</title>
<polygon fill="none" stroke="#000000" points="312,-273 312,-325 482,-325 482,-273 312,-273"/>
</g>
<!-- PriceFormatComponent -->
<g id="node1" class="node">
<title>PriceFormatComponent</title>
<polygon fill="#ffffb3" stroke="#000000" points="688.0351,-187 537.9649,-187 537.9649,-151 688.0351,-151 688.0351,-187"/>
<text text-anchor="middle" x="613" y="-164.8" font-family="Times,serif" font-size="14.00" fill="#000000">PriceFormatComponent</text>
</g>
<!-- PriceFormatModule -->
<g id="node2" class="node">
<title>PriceFormatModule</title>
<polygon fill="#8dd3c7" stroke="#000000" points="461.252,-252 458.252,-256 437.252,-256 434.252,-252 332.748,-252 332.748,-216 461.252,-216 461.252,-252"/>
<text text-anchor="middle" x="397" y="-229.8" font-family="Times,serif" font-size="14.00" fill="#000000">PriceFormatModule</text>
</g>
<!-- PriceFormatComponent&#45;&gt;PriceFormatModule -->
<g id="edge1" class="edge">
<title>PriceFormatComponent&#45;&gt;PriceFormatModule</title>
<path fill="none" stroke="#000000" d="M613,-187.1061C613,-206.3391 613,-234 613,-234 613,-234 471.5145,-234 471.5145,-234"/>
<polygon fill="#000000" stroke="#000000" points="471.5146,-230.5001 461.5145,-234 471.5145,-237.5001 471.5146,-230.5001"/>
</g>
<!-- PriceFormatComponent  -->
<g id="node8" class="node">
<title>PriceFormatComponent </title>
<polygon fill="#fb8072" stroke="#000000" points="474.0344,-317 319.9656,-317 319.9656,-281 474.0344,-281 474.0344,-317"/>
<text text-anchor="middle" x="397" y="-294.8" font-family="Times,serif" font-size="14.00" fill="#000000">PriceFormatComponent </text>
</g>
<!-- PriceFormatModule&#45;&gt;PriceFormatComponent  -->
<g id="edge7" class="edge">
<title>PriceFormatModule&#45;&gt;PriceFormatComponent </title>
<path fill="none" stroke="#000000" stroke-dasharray="5,2" d="M397,-252.1061C397,-252.1061 397,-270.991 397,-270.991"/>
<polygon fill="#000000" stroke="#000000" points="393.5001,-270.9909 397,-280.991 400.5001,-270.991 393.5001,-270.9909"/>
</g>
<!-- { provide: NG_VALUE_ACCESSOR, useExisting: , multi: &#160;} -->
<g id="node3" class="node">
<title>{ provide: NG_VALUE_ACCESSOR, useExisting: , multi: &#160;}</title>
<ellipse fill="#fdb462" stroke="#000000" cx="744" cy="-104" rx="251.4985" ry="18"/>
<text text-anchor="middle" x="744" y="-99.8" font-family="Times,serif" font-size="14.00" fill="#000000">{ provide: NG_VALUE_ACCESSOR, useExisting: , multi: &#160;}</text>
</g>
<!-- { provide: NG_VALUE_ACCESSOR, useExisting: , multi: &#160;}&#45;&gt;PriceFormatComponent -->
<g id="edge2" class="edge">
<title>{ provide: NG_VALUE_ACCESSOR, useExisting: , multi: &#160;}&#45;&gt;PriceFormatComponent</title>
<path fill="none" stroke="#000000" d="M638.0891,-120.4022C638.0891,-120.4022 638.0891,-140.5366 638.0891,-140.5366"/>
<polygon fill="#000000" stroke="#000000" points="634.5892,-140.5366 638.0891,-150.5366 641.5892,-140.5367 634.5892,-140.5366"/>
</g>
<!-- { provide: NG_VALIDATORS, useExisting: , multi: &#160;} -->
<g id="node4" class="node">
<title>{ provide: NG_VALIDATORS, useExisting: , multi: &#160;}</title>
<ellipse fill="#fdb462" stroke="#000000" cx="249" cy="-104" rx="225.4746" ry="18"/>
<text text-anchor="middle" x="249" y="-99.8" font-family="Times,serif" font-size="14.00" fill="#000000">{ provide: NG_VALIDATORS, useExisting: , multi: &#160;}</text>
</g>
<!-- { provide: NG_VALIDATORS, useExisting: , multi: &#160;}&#45;&gt;PriceFormatComponent -->
<g id="edge3" class="edge">
<title>{ provide: NG_VALIDATORS, useExisting: , multi: &#160;}&#45;&gt;PriceFormatComponent</title>
<path fill="none" stroke="#000000" d="M438.3268,-114.0804C438.3268,-123.7851 438.3268,-137 438.3268,-137 438.3268,-137 587.9109,-137 587.9109,-137 587.9109,-137 587.9109,-140.7566 587.9109,-140.7566"/>
<polygon fill="#000000" stroke="#000000" points="584.411,-140.7566 587.9109,-150.7566 591.411,-140.7566 584.411,-140.7566"/>
</g>
<!-- CommonModule -->
<g id="node5" class="node">
<title>CommonModule</title>
<polygon fill="#8dd3c7" stroke="#000000" points="513.6681,-187 510.6681,-191 489.6681,-191 486.6681,-187 402.3319,-187 402.3319,-151 513.6681,-151 513.6681,-187"/>
<text text-anchor="middle" x="458" y="-164.8" font-family="Times,serif" font-size="14.00" fill="#000000">CommonModule</text>
</g>
<!-- CommonModule&#45;&gt;PriceFormatModule -->
<g id="edge4" class="edge">
<title>CommonModule&#45;&gt;PriceFormatModule</title>
<path fill="none" stroke="#000000" d="M431.7711,-187.1061C431.7711,-187.1061 431.7711,-205.991 431.7711,-205.991"/>
<polygon fill="#000000" stroke="#000000" points="428.2711,-205.9909 431.7711,-215.991 435.2711,-205.991 428.2711,-205.9909"/>
</g>
<!-- FormsModule -->
<g id="node6" class="node">
<title>FormsModule</title>
<polygon fill="#8dd3c7" stroke="#000000" points="384.8288,-187 381.8288,-191 360.8288,-191 357.8288,-187 289.1712,-187 289.1712,-151 384.8288,-151 384.8288,-187"/>
<text text-anchor="middle" x="337" y="-164.8" font-family="Times,serif" font-size="14.00" fill="#000000">FormsModule</text>
</g>
<!-- FormsModule&#45;&gt;PriceFormatModule -->
<g id="edge5" class="edge">
<title>FormsModule&#45;&gt;PriceFormatModule</title>
<path fill="none" stroke="#000000" d="M358.6441,-187.1061C358.6441,-187.1061 358.6441,-205.991 358.6441,-205.991"/>
<polygon fill="#000000" stroke="#000000" points="355.1442,-205.9909 358.6441,-215.991 362.1442,-205.991 355.1442,-205.9909"/>
</g>
<!-- TextMaskModule -->
<g id="node7" class="node">
<title>TextMaskModule</title>
<polygon fill="#8dd3c7" stroke="#000000" points="271.3118,-187 268.3118,-191 247.3118,-191 244.3118,-187 154.6882,-187 154.6882,-151 271.3118,-151 271.3118,-187"/>
<text text-anchor="middle" x="213" y="-164.8" font-family="Times,serif" font-size="14.00" fill="#000000">TextMaskModule</text>
</g>
<!-- TextMaskModule&#45;&gt;PriceFormatModule -->
<g id="edge6" class="edge">
<title>TextMaskModule&#45;&gt;PriceFormatModule</title>
<path fill="none" stroke="#000000" d="M213,-187.1061C213,-206.3391 213,-234 213,-234 213,-234 322.6457,-234 322.6457,-234"/>
<polygon fill="#000000" stroke="#000000" points="322.6458,-237.5001 332.6457,-234 322.6457,-230.5001 322.6458,-237.5001"/>
</g>
</g>
</svg>
